<svg width="94" height="19" viewBox="0 0 94 19" fill="none" xmlns="http://www.w3.org/2000/svg">
<path d="M17.784 18.264H13.416L13.2 12.048L13.176 11.016C13.144 10.056 13.128 9.32801 13.128 8.83201C13.128 7.63201 13.176 6.43201 13.272 5.23201L10.992 16.536H6.792L4.368 5.23201C4.512 7.10401 4.584 8.75201 4.584 10.176C4.584 10.992 4.576 11.616 4.56 12.048L4.368 18.264H-4.02331e-06L1.224 1.58401H6.744L8.976 12.648L10.992 1.58401H16.536L17.784 18.264ZM30.2175 14.328C30.2175 14.792 30.2735 15.136 30.3855 15.36C30.5135 15.584 30.7295 15.752 31.0335 15.864L30.1695 18.624C29.3535 18.56 28.6815 18.392 28.1535 18.12C27.6415 17.848 27.2255 17.416 26.9055 16.824C26.0895 18.072 24.8015 18.696 23.0415 18.696C21.7775 18.696 20.7615 18.328 19.9935 17.592C19.2415 16.84 18.8655 15.872 18.8655 14.688C18.8655 13.28 19.3855 12.2 20.4255 11.448C21.4655 10.696 22.9695 10.32 24.9375 10.32H26.0415V9.88801C26.0415 9.20001 25.8975 8.73601 25.6095 8.49601C25.3215 8.24001 24.8015 8.11201 24.0495 8.11201C23.6495 8.11201 23.1455 8.17601 22.5375 8.30401C21.9455 8.41601 21.3375 8.57601 20.7135 8.78401L19.7775 6.02401C20.5455 5.70401 21.3695 5.46401 22.2495 5.30401C23.1295 5.12801 23.9455 5.04001 24.6975 5.04001C26.6175 5.04001 28.0175 5.42401 28.8975 6.19201C29.7775 6.94401 30.2175 8.10401 30.2175 9.67201V14.328ZM24.3375 15.696C24.6895 15.696 25.0095 15.608 25.2975 15.432C25.6015 15.24 25.8495 14.984 26.0415 14.664V12.6H25.3215C24.5535 12.6 23.9855 12.744 23.6175 13.032C23.2495 13.304 23.0655 13.72 23.0655 14.28C23.0655 14.712 23.1775 15.056 23.4015 15.312C23.6255 15.568 23.9375 15.696 24.3375 15.696ZM41.3008 17.64C40.8048 17.992 40.2288 18.256 39.5728 18.432C38.9168 18.608 38.2768 18.696 37.6528 18.696C34.6928 18.696 33.2128 17.064 33.2128 13.8V8.40001H31.5568V5.47201H33.2128V2.76001L37.4848 2.25601V5.47201H40.3888L39.9568 8.40001H37.4848V13.752C37.4848 14.328 37.5728 14.736 37.7488 14.976C37.9408 15.216 38.2208 15.336 38.5888 15.336C39.0368 15.336 39.4688 15.216 39.8848 14.976L41.3008 17.64ZM50.1467 5.04001C51.2347 5.04001 52.0907 5.38401 52.7147 6.07201C53.3387 6.74401 53.6507 7.68001 53.6507 8.88001V18.264H49.3787V9.64801C49.3787 9.08801 49.2907 8.70401 49.1147 8.49601C48.9547 8.27201 48.7147 8.16001 48.3947 8.16001C47.7387 8.16001 47.1067 8.64801 46.4987 9.62401V18.264H42.2267V0.432007L46.4987 6.67572e-06V6.72001C47.0267 6.14401 47.5867 5.72001 48.1787 5.44801C48.7707 5.17601 49.4267 5.04001 50.1467 5.04001ZM67.6234 11.664C67.6234 11.76 67.5994 12.24 67.5514 13.104H59.7274C59.8394 14.08 60.1114 14.752 60.5434 15.12C60.9914 15.472 61.6234 15.648 62.4394 15.648C62.9194 15.648 63.3914 15.56 63.8554 15.384C64.3354 15.192 64.8554 14.904 65.4154 14.52L67.1434 16.872C66.4714 17.432 65.7034 17.88 64.8394 18.216C63.9754 18.536 63.0394 18.696 62.0314 18.696C59.8554 18.696 58.1994 18.088 57.0634 16.872C55.9434 15.64 55.3834 13.992 55.3834 11.928C55.3834 10.632 55.6154 9.46401 56.0794 8.42401C56.5594 7.38401 57.2634 6.56001 58.1914 5.95201C59.1194 5.34401 60.2394 5.04001 61.5514 5.04001C63.4234 5.04001 64.9034 5.62401 65.9914 6.79201C67.0794 7.94401 67.6234 9.56801 67.6234 11.664ZM63.4234 10.464C63.4074 9.61601 63.2634 8.96001 62.9914 8.49601C62.7194 8.03201 62.2634 7.80001 61.6234 7.80001C61.0314 7.80001 60.5834 8.00801 60.2794 8.42401C59.9754 8.84001 59.7834 9.56801 59.7034 10.608H63.4234V10.464ZM80.5039 18.264H76.7839L76.6159 16.752C75.7199 18.048 74.4479 18.696 72.7999 18.696C71.6159 18.696 70.7199 18.344 70.1119 17.64C69.5199 16.92 69.2239 15.928 69.2239 14.664V5.47201H73.4959V14.112C73.4959 14.656 73.5759 15.04 73.7359 15.264C73.9119 15.472 74.1679 15.576 74.5039 15.576C74.8079 15.576 75.1039 15.472 75.3919 15.264C75.6959 15.04 75.9759 14.72 76.2319 14.304V5.47201H80.5039V18.264ZM87.8319 5.04001C88.7599 5.04001 89.6399 5.18401 90.4719 5.47201C91.3199 5.76001 92.0399 6.15201 92.6319 6.64801L91.0959 9.00001C90.0719 8.36001 89.0399 8.04001 87.9999 8.04001C87.5519 8.04001 87.2159 8.11201 86.9919 8.25601C86.7839 8.38401 86.6799 8.56801 86.6799 8.80801C86.6799 9.01601 86.7359 9.18401 86.8479 9.31201C86.9599 9.44001 87.1919 9.58401 87.5439 9.74401C87.9119 9.88801 88.4879 10.08 89.2719 10.32C90.5839 10.704 91.5519 11.208 92.1759 11.832C92.7999 12.44 93.1119 13.296 93.1119 14.4C93.1119 15.264 92.8559 16.024 92.3439 16.68C91.8479 17.32 91.1519 17.816 90.2559 18.168C89.3759 18.52 88.3759 18.696 87.2559 18.696C86.1679 18.696 85.1439 18.528 84.1839 18.192C83.2399 17.84 82.4399 17.36 81.7839 16.752L83.8239 14.472C84.3199 14.856 84.8479 15.16 85.4079 15.384C85.9839 15.608 86.5599 15.72 87.1359 15.72C87.6479 15.72 88.0399 15.64 88.3119 15.48C88.5999 15.304 88.7439 15.048 88.7439 14.712C88.7439 14.456 88.6799 14.256 88.5519 14.112C88.4399 13.968 88.2159 13.832 87.8799 13.704C87.5439 13.56 86.9679 13.368 86.1519 13.128C83.6719 12.392 82.4319 11.04 82.4319 9.07201C82.4319 8.32001 82.6479 7.64001 83.0799 7.03201C83.5119 6.40801 84.1279 5.92001 84.9279 5.56801C85.7439 5.21601 86.7119 5.04001 87.8319 5.04001Z" fill="black"/>
</svg>
